<svg width="18" height="19" viewBox="0 0 18 19" fill="none" xmlns="http://www.w3.org/2000/svg">
<path d="M17.9137 12.7508L15.8678 5.37687C15.4309 3.79949 14.479 2.41356 13.1635 1.43966C11.848 0.465768 10.2446 -0.0401295 8.60835 0.00248817C6.97214 0.0451058 5.3972 0.63379 4.13419 1.67485C2.87118 2.7159 1.99268 4.14951 1.63851 5.7475L0.0560761 12.8688C-0.0204939 13.2138 -0.0186262 13.5716 0.0615414 13.9158C0.141709 14.26 0.298131 14.5818 0.519266 14.8575C0.740401 15.1331 1.02061 15.3556 1.33921 15.5086C1.65782 15.6615 2.00669 15.7409 2.36009 15.741H5.19839C5.379 16.6304 5.86153 17.43 6.56423 18.0044C7.26693 18.5787 8.14659 18.8925 9.05415 18.8925C9.96171 18.8925 10.8414 18.5787 11.5441 18.0044C12.2468 17.43 12.7293 16.6304 12.9099 15.741H15.6404C16.004 15.7408 16.3627 15.6567 16.6885 15.4951C17.0142 15.3334 17.2982 15.0988 17.5183 14.8093C17.7385 14.5199 17.8887 14.1835 17.9575 13.8265C18.0262 13.4694 18.0107 13.1013 17.9137 12.7508ZM9.05415 17.3148C8.56765 17.3127 8.09365 17.1605 7.697 16.8788C7.30036 16.597 7.00043 16.1997 6.83827 15.741H11.27C11.1079 16.1997 10.8079 16.597 10.4113 16.8788C10.0146 17.1605 9.54065 17.3127 9.05415 17.3148ZM16.266 13.8564C16.1926 13.9537 16.0974 14.0325 15.9881 14.0865C15.8788 14.1404 15.7584 14.1681 15.6365 14.1672H2.36009C2.24226 14.1672 2.12594 14.1407 2.01972 14.0897C1.91349 14.0387 1.82007 13.9645 1.74636 13.8726C1.67264 13.7807 1.62051 13.6734 1.5938 13.5586C1.5671 13.4439 1.56651 13.3246 1.59208 13.2096L3.17452 6.08822C3.45335 4.83408 4.14342 3.70914 5.13502 2.89223C6.12661 2.07532 7.36283 1.61332 8.64715 1.57967C9.93147 1.54603 11.1902 1.94267 12.2232 2.70654C13.2562 3.47041 14.0042 4.55768 14.3483 5.7955L16.3942 13.1694C16.4277 13.286 16.4335 13.4088 16.4112 13.528C16.3889 13.6473 16.3392 13.7597 16.266 13.8564Z" fill="currentColor"/>
</svg>
