<svg width="18" height="18" viewBox="0 0 18 18" fill="none" xmlns="http://www.w3.org/2000/svg">
<path d="M9 0C3.95325 0 0 2.5695 0 5.85V12.15C0 15.4305 3.95325 18 9 18C14.0468 18 18 15.4305 18 12.15V5.85C18 2.5695 14.0468 0 9 0ZM1.5 12.15V9.126C1.72725 9.3483 1.9785 9.5598 2.25 9.7587V13.8321C1.76475 13.2921 1.5 12.7125 1.5 12.1509V12.15ZM5.25 15.6294C4.69725 15.4476 4.19475 15.228 3.75 14.9823V10.6308C4.21725 10.8459 4.719 11.0322 5.25 11.1861V15.6294ZM8.25 16.1793C7.72725 16.1505 7.22625 16.0911 6.75 16.0056V11.5227C7.2345 11.601 7.7355 11.6541 8.25 11.6802V16.1793ZM11.25 16.0056C10.7738 16.0911 10.2727 16.1496 9.75 16.1793V11.6811C10.2645 11.655 10.7655 11.6019 11.25 11.5236V16.0056ZM14.25 14.9832C13.8053 15.2289 13.3027 15.4476 12.75 15.6303V11.1879C13.281 11.034 13.7828 10.8477 14.25 10.6326V14.9832ZM16.5 12.1509C16.5 12.7125 16.2353 13.2921 15.75 13.8321V9.7587C16.0215 9.5598 16.2728 9.3492 16.5 9.126V12.15V12.1509ZM9 9.9009C4.58025 9.9009 1.5 7.7661 1.5 5.8509C1.5 3.9357 4.58025 1.8 9 1.8C13.4198 1.8 16.5 3.9348 16.5 5.85C16.5 7.7652 13.4198 9.9 9 9.9V9.9009Z" fill="currentColor"/>
</svg>
