<svg width="19" height="19" viewBox="0 0 19 19" fill="none" xmlns="http://www.w3.org/2000/svg">
<path d="M13.8232 7.36075C13.8232 7.85736 13.6259 8.33363 13.2747 8.68479C12.9236 9.03595 12.4473 9.23323 11.9507 9.23323C11.4541 9.23323 10.9778 9.03595 10.6266 8.68479C10.2755 8.33363 10.0782 7.85736 10.0782 7.36075C10.0782 6.86414 10.2755 6.38787 10.6266 6.03672C10.9778 5.68556 11.4541 5.48828 11.9507 5.48828C12.4473 5.48828 12.9236 5.68556 13.2747 6.03672C13.6259 6.38787 13.8232 6.86414 13.8232 7.36075ZM13.8187 12.5033C13.7775 13.6934 13.4804 14.8606 12.9476 15.9254C12.4566 16.8539 11.7195 17.6291 10.817 18.1662C9.91443 18.7033 8.88142 18.9814 7.83124 18.9701H7.08225V14.8506C7.07891 14.1564 6.80164 13.4916 6.31075 13.0007C5.81985 12.5098 5.15501 12.2325 4.46079 12.2292H0.34135V11.4802C0.330012 10.43 0.608136 9.397 1.14521 8.49448C1.68229 7.59195 2.45756 6.85479 3.38599 6.36385C4.45088 5.83102 5.61808 5.53392 6.80812 5.49277C7.89929 4.08336 9.30058 2.94436 10.9032 2.16421C12.5059 1.38406 14.2667 0.98375 16.0492 0.994346C16.3457 0.992471 16.6398 1.04916 16.9144 1.16116C17.1891 1.27316 17.4389 1.43826 17.6496 1.64701C17.8603 1.85576 18.0277 2.10404 18.1422 2.37763C18.2568 2.65121 18.3162 2.94472 18.3171 3.24131C18.3298 5.02706 17.9305 6.79169 17.1503 8.39805C16.3701 10.0044 15.2301 11.4092 13.8187 12.5033ZM1.90224 10.7312H3.59646C4.15269 9.49237 4.8061 8.2995 5.55057 7.16377C5.03348 7.28407 4.53242 7.46508 4.05783 7.70304C3.48706 8.00444 2.9948 8.43532 2.62047 8.96117C2.24615 9.48701 2.00018 10.0932 1.90224 10.7312ZM12.1477 13.7609C11.0119 14.5053 9.81907 15.1587 8.58023 15.715V17.4092C9.21823 17.3113 9.82442 17.0653 10.3503 16.691C10.8761 16.3166 11.307 15.8244 11.6084 15.2536C11.8464 14.779 12.0274 14.278 12.1477 13.7609ZM16.8191 3.22034C16.8137 3.02535 16.7323 2.84019 16.5925 2.70423C16.4526 2.56827 16.2652 2.49225 16.0701 2.49232C12.2053 2.60243 9.59137 4.08318 7.06877 7.60193C6.36483 8.61546 5.74581 9.68541 5.21802 10.8009C6.03586 10.9532 6.78841 11.3495 7.37665 11.9378C7.96489 12.526 8.36125 13.2786 8.51357 14.0964C9.62902 13.5686 10.699 12.9496 11.7125 12.2457C15.2283 9.72007 16.709 7.1061 16.8191 3.22034ZM4.92666 14.3855C5.34517 14.8083 5.57993 15.3792 5.57993 15.9741C5.57993 16.569 5.34517 17.1399 4.92666 17.5627C4.24733 18.2413 2.21382 18.66 1.37046 18.8091L0.317383 18.9941L0.502383 17.941C0.652181 17.0976 1.07012 15.0641 1.7487 14.3848C2.17693 13.9763 2.74604 13.7485 3.33783 13.7486C3.92962 13.7488 4.49862 13.9769 4.92666 14.3855ZM4.0863 15.9741C4.08656 15.8757 4.0673 15.7783 4.02963 15.6874C3.99196 15.5965 3.93663 15.514 3.86684 15.4446C3.72639 15.3042 3.53591 15.2253 3.33731 15.2253C3.1387 15.2253 2.94823 15.3042 2.80777 15.4446C2.52221 15.9601 2.32166 16.5183 2.21382 17.0976C2.7934 16.9893 3.35178 16.7885 3.86759 16.5029C3.93716 16.4336 3.9923 16.3512 4.02983 16.2604C4.06737 16.1696 4.08656 16.0723 4.0863 15.9741Z" fill="currentColor"/>
</svg>
