<svg width="18" height="18" viewBox="0 0 18 18" fill="none" xmlns="http://www.w3.org/2000/svg">
<g clip-path="url(#clip0_1_13)">
<path d="M13.875 18H4.125C3.03135 17.9988 1.98283 17.5638 1.2095 16.7905C0.436171 16.0172 0.00119113 14.9687 0 13.875L0 4.125C0.00119113 3.03135 0.436171 1.98283 1.2095 1.2095C1.98283 0.436171 3.03135 0.00119113 4.125 0L13.875 0C14.9687 0.00119113 16.0172 0.436171 16.7905 1.2095C17.5638 1.98283 17.9988 3.03135 18 4.125V13.875C17.9988 14.9687 17.5638 16.0172 16.7905 16.7905C16.0172 17.5638 14.9687 17.9988 13.875 18ZM4.125 2.25C3.62772 2.25 3.15081 2.44754 2.79917 2.79917C2.44754 3.15081 2.25 3.62772 2.25 4.125V13.875C2.25 14.3723 2.44754 14.8492 2.79917 15.2008C3.15081 15.5525 3.62772 15.75 4.125 15.75H13.875C14.3723 15.75 14.8492 15.5525 15.2008 15.2008C15.5525 14.8492 15.75 14.3723 15.75 13.875V4.125C15.75 3.62772 15.5525 3.15081 15.2008 2.79917C14.8492 2.44754 14.3723 2.25 13.875 2.25H4.125ZM4.5 5.625C4.5 5.8475 4.56598 6.06501 4.6896 6.25002C4.81321 6.43502 4.98891 6.57922 5.19448 6.66436C5.40005 6.74951 5.62625 6.77179 5.84448 6.72838C6.06271 6.68498 6.26316 6.57783 6.4205 6.4205C6.57783 6.26316 6.68498 6.06271 6.72838 5.84448C6.77179 5.62625 6.74951 5.40005 6.66436 5.19448C6.57922 4.98891 6.43502 4.81321 6.25002 4.6896C6.06501 4.56598 5.8475 4.5 5.625 4.5C5.32663 4.5 5.04048 4.61853 4.8295 4.8295C4.61853 5.04048 4.5 5.32663 4.5 5.625ZM11.25 5.625C11.25 5.8475 11.316 6.06501 11.4396 6.25002C11.5632 6.43502 11.7389 6.57922 11.9445 6.66436C12.15 6.74951 12.3762 6.77179 12.5945 6.72838C12.8127 6.68498 13.0132 6.57783 13.1705 6.4205C13.3278 6.26316 13.435 6.06271 13.4784 5.84448C13.5218 5.62625 13.4995 5.40005 13.4144 5.19448C13.3292 4.98891 13.185 4.81321 13 4.6896C12.815 4.56598 12.5975 4.5 12.375 4.5C12.0766 4.5 11.7905 4.61853 11.5795 4.8295C11.3685 5.04048 11.25 5.32663 11.25 5.625ZM4.5 12.375C4.5 12.5975 4.56598 12.815 4.6896 13C4.81321 13.185 4.98891 13.3292 5.19448 13.4144C5.40005 13.4995 5.62625 13.5218 5.84448 13.4784C6.06271 13.435 6.26316 13.3278 6.4205 13.1705C6.57783 13.0132 6.68498 12.8127 6.72838 12.5945C6.77179 12.3762 6.74951 12.15 6.66436 11.9445C6.57922 11.7389 6.43502 11.5632 6.25002 11.4396C6.06501 11.316 5.8475 11.25 5.625 11.25C5.32663 11.25 5.04048 11.3685 4.8295 11.5795C4.61853 11.7905 4.5 12.0766 4.5 12.375ZM11.25 12.375C11.25 12.5975 11.316 12.815 11.4396 13C11.5632 13.185 11.7389 13.3292 11.9445 13.4144C12.15 13.4995 12.3762 13.5218 12.5945 13.4784C12.8127 13.435 13.0132 13.3278 13.1705 13.1705C13.3278 13.0132 13.435 12.8127 13.4784 12.5945C13.5218 12.3762 13.4995 12.15 13.4144 11.9445C13.3292 11.7389 13.185 11.5632 13 11.4396C12.815 11.316 12.5975 11.25 12.375 11.25C12.0766 11.25 11.7905 11.3685 11.5795 11.5795C11.3685 11.7905 11.25 12.0766 11.25 12.375ZM4.5 9C4.5 9.2225 4.56598 9.44001 4.6896 9.62502C4.81321 9.81002 4.98891 9.95422 5.19448 10.0394C5.40005 10.1245 5.62625 10.1468 5.84448 10.1034C6.06271 10.06 6.26316 9.95283 6.4205 9.7955C6.57783 9.63816 6.68498 9.43771 6.72838 9.21948C6.77179 9.00125 6.74951 8.77505 6.66436 8.56948C6.57922 8.36391 6.43502 8.18821 6.25002 8.0646C6.06501 7.94098 5.8475 7.875 5.625 7.875C5.32663 7.875 5.04048 7.99353 4.8295 8.2045C4.61853 8.41548 4.5 8.70163 4.5 9ZM11.25 9C11.25 9.2225 11.316 9.44001 11.4396 9.62502C11.5632 9.81002 11.7389 9.95422 11.9445 10.0394C12.15 10.1245 12.3762 10.1468 12.5945 10.1034C12.8127 10.06 13.0132 9.95283 13.1705 9.7955C13.3278 9.63816 13.435 9.43771 13.4784 9.21948C13.5218 9.00125 13.4995 8.77505 13.4144 8.56948C13.3292 8.36391 13.185 8.18821 13 8.0646C12.815 7.94098 12.5975 7.875 12.375 7.875C12.0766 7.875 11.7905 7.99353 11.5795 8.2045C11.3685 8.41548 11.25 8.70163 11.25 9Z" fill="currentColor"/>
</g>
<defs>
<clipPath id="clip0_1_13">
<rect width="18" height="18" fill="white"/>
</clipPath>
</defs>
</svg>
