<svg width="18" height="18" viewBox="0 0 18 18" fill="none" xmlns="http://www.w3.org/2000/svg">
<path d="M17.1368 5.76001L16.485 5.25001H16.5008V1.50001H15.0008V4.08826L10.3868 0.477759C9.99135 0.167252 9.50314 -0.00152588 9.00039 -0.00152588C8.49763 -0.00152588 8.00942 0.167252 7.61401 0.477759L0.86326 5.76001C0.593579 5.96987 0.375556 6.23872 0.225916 6.54593C0.0762767 6.85314 -0.0010018 7.19055 9.80491e-06 7.53226V18H6.00001V11.25C6.00001 10.8522 6.15805 10.4707 6.43935 10.1894C6.72066 9.90805 7.10219 9.75001 7.50001 9.75001H10.5C10.8978 9.75001 11.2794 9.90805 11.5607 10.1894C11.842 10.4707 12 10.8522 12 11.25V18H18V7.53226C18 6.83551 17.685 6.18901 17.1368 5.76001Z" fill="currentColor"/>
</svg>
