<svg width="240" height="155" viewBox="0 0 240 155" fill="none" xmlns="http://www.w3.org/2000/svg">
<path fill-rule="evenodd" clip-rule="evenodd" d="M141.138 60.0829C137.803 59.4904 135.503 62.3604 135.285 65.7679C135.163 67.6729 135.085 67.6629 134.18 68.8579C133.023 70.3854 132.565 72.3679 133.725 73.6404C134.233 74.1979 134.615 74.4679 134.71 73.4729C134.878 71.7379 133.915 70.8454 135.325 69.5779C136.188 68.8004 138.418 68.1704 138.96 67.3604C139.728 66.2104 139.448 64.5129 140.69 63.2204C142.185 61.6654 144.655 63.0954 145.563 63.3504C145.965 61.1079 142.99 60.4104 141.138 60.0829Z" fill="white"/>
<path fill-rule="evenodd" clip-rule="evenodd" d="M142.087 64.1524C141.597 64.0374 141.18 64.0899 140.902 64.7024C140.68 65.1999 140.492 65.7624 140.34 66.3849C140.205 66.9349 140.222 67.3124 140.925 67.3349C141.925 67.3649 142.435 67.4774 143.207 67.5949C143.717 67.6724 144.085 67.6824 144.382 67.2174C144.767 66.6149 145.28 65.7374 144.857 65.3124C144.352 64.7999 142.84 64.3299 142.087 64.1524Z" fill="white"/>
<path fill-rule="evenodd" clip-rule="evenodd" d="M143.97 69.2679C143.123 68.0804 140.29 68.4454 139.583 69.3179C137.545 71.8429 139.87 73.8354 141.345 76.7629C141.88 77.8279 142.198 78.9429 142.398 80.1029C142.508 80.7429 142.743 80.3779 142.848 80.0304C144.245 75.3954 139.83 73.2804 140.26 70.8979C140.368 70.3004 141.113 70.4279 141.123 70.8704C141.133 71.2004 141.163 71.7979 142.135 73.1604C142.925 74.2679 142.968 74.3879 143.518 75.6379C143.615 75.8654 143.853 75.9029 144.065 75.8154C146.093 74.9904 145.655 72.4954 144.685 70.5804C144.428 70.0704 144.225 69.6279 143.97 69.2679Z" fill="white"/>
<path fill-rule="evenodd" clip-rule="evenodd" d="M139.833 85.7074C141.168 82.6774 141.748 79.5699 139.975 76.5024C139.545 75.7549 139.01 74.8399 138.378 73.6474C137.408 71.8299 137.613 70.7699 138.08 69.8099C138.345 69.2624 138.14 69.1124 137.61 69.2724C136.303 69.6599 135.613 70.0024 135.59 71.3824C135.578 72.1899 135.768 73.3199 135.653 74.1374C135.48 75.3849 134.22 75.6549 133.438 74.9524C133.173 74.7124 132.928 74.4274 132.735 74.1574C132.433 73.7324 132.268 73.7174 131.95 74.1324L131.59 74.6074C131.245 75.0599 131.315 75.8374 131.555 76.3249C132.038 77.3074 132.323 77.8949 132.728 79.5274C133.11 81.0799 133.038 82.2824 133.223 83.5549C133.523 85.6074 134.508 87.3949 134.553 89.6124C134.585 91.1974 134 92.7174 133.373 94.1499C133.213 94.5149 133.568 94.2749 133.675 94.2024C135.655 92.8799 137.58 90.1224 138.26 87.9724C139.29 84.7099 136.235 82.6124 135.79 80.8124C135.535 79.7774 136.605 79.3649 137 80.5049C137.163 80.9774 137.395 81.6549 138.04 82.7074C138.56 83.5549 139.13 84.4999 139.38 85.7249C139.495 86.2799 139.66 86.0949 139.833 85.7074Z" fill="white"/>
<path fill-rule="evenodd" clip-rule="evenodd" d="M144.338 81.4053C140.708 82.2928 142.103 84.1253 139.815 88.0753C139.125 89.2703 138.47 90.6553 137.665 91.7078C136.868 92.7503 135.918 93.4603 134.893 94.3628C132.28 96.6678 133.26 98.7328 134.32 99.4503C134.548 99.6053 134.59 99.4978 134.685 99.2828C136.915 94.1403 137.5 96.6578 141.06 94.6628C142.263 93.9878 142.105 93.5428 142.063 91.8428C141.99 88.9828 143.56 88.0028 144.758 86.6478C146.435 84.7528 146.74 84.3028 146.13 81.9728C145.935 81.2278 144.94 81.2578 144.338 81.4053Z" fill="white"/>
<path fill-rule="evenodd" clip-rule="evenodd" d="M143.927 80.1402C143.865 80.5627 143.99 80.6052 144.392 80.4752C147.387 79.5027 147.097 77.4652 146.322 76.2802C146.057 75.8727 145.602 75.8177 145.23 76.1302C145.017 76.3077 144.82 76.4527 144.607 76.6402C144.245 76.9627 143.975 77.4927 144.025 77.9802C144.095 78.6277 144.027 79.4677 143.927 80.1402Z" fill="white"/>
<mask id="mask0_1_301" style="mask-type:luminance" maskUnits="userSpaceOnUse" x="118" y="85" width="16" height="18">
<path d="M118.062 85.7627H133.568V102.82H118.062V85.7627Z" fill="white"/>
</mask>
<g mask="url(#mask0_1_301)">
<path fill-rule="evenodd" clip-rule="evenodd" d="M133.01 91.7348C133.633 90.1298 133.653 88.3923 132.773 86.3898C132.443 85.6373 132.243 85.9023 131.888 86.4848C130.16 89.3198 127.763 91.0748 122.193 92.7348C118.065 93.9673 117.575 98.3423 119.143 101.012C119.63 101.845 119.973 102.147 120.468 102.49C120.983 102.847 121.25 103.08 121.283 102.325C121.375 100.045 122.23 98.7773 123.795 97.7773C127.453 95.4423 131.013 96.8723 133.01 91.7348Z" fill="white"/>
</g>
<path fill-rule="evenodd" clip-rule="evenodd" d="M128.225 88.8747C129.315 88.0847 130.29 87.0822 131.34 85.3672C132.837 82.9147 132.015 79.2047 130.787 76.8972C130.272 75.9297 129.192 76.3922 128.627 77.0572C127.81 78.0172 127.392 78.7097 127.21 79.2647C126.92 80.1572 126.195 80.5297 125.62 79.6747C125.202 79.0547 124.93 78.2847 124.737 77.5922C124.405 76.3897 123.93 76.7497 123.607 77.7022C123.445 78.1847 123.3 78.7122 123.107 79.2722C122.582 80.7772 123.08 81.8522 122.74 83.4247C122.135 86.2347 119.98 86.3547 117.99 87.6247C114.4 89.9197 116.662 92.9722 111.115 93.9597C110.485 94.0722 109.887 94.1722 109.222 94.2722C108.502 94.4372 107.112 94.7647 108.69 95.3872C109.637 95.7597 110.592 96.1322 112.01 96.1997C118.507 96.5097 118.035 93.5922 120.372 92.3822C123.002 91.0222 124.74 91.3997 128.225 88.8747Z" fill="white"/>
<path fill-rule="evenodd" clip-rule="evenodd" d="M126.835 70.5348C131.423 66.9448 129.04 65.0948 128.675 62.5023C128.535 61.5048 128.77 60.7098 129.035 59.9498C129.288 59.2223 129.29 58.5923 128.735 58.0348C128.058 57.3573 127.293 56.7748 126.605 55.9123C126.54 55.8273 126.473 55.7398 126.41 55.6523C126.153 55.2998 125.945 55.1823 125.76 55.2023C125.463 55.2323 125.22 55.6173 124.918 55.9573C124.503 56.4273 123.998 56.7198 123.018 57.3748C122.218 57.9073 121.335 58.4573 120.95 59.0673C119.2 61.8498 121.12 64.5173 121.278 66.8723C121.338 68.2748 120.845 69.3398 120.288 70.3948C119.938 71.0523 119.563 71.7048 119.365 72.4798C118.813 74.6523 120.425 76.2498 120.323 78.5473C120.285 79.3073 120.128 80.2098 119.91 81.2873C119.758 82.0323 120.12 82.1023 120.678 81.5673C121.84 80.4548 122.258 78.4773 122.933 76.7323C123.26 75.8873 123.68 75.3048 124.01 74.5248C124.79 72.6773 125.215 71.8023 126.835 70.5348Z" fill="white"/>
<path fill-rule="evenodd" clip-rule="evenodd" d="M124.35 52.4755C125.412 51.498 125.192 50.088 125.355 47.9305C125.755 42.5555 130.94 43.443 126.105 34.7955C125.72 34.108 125.4 33.6005 125.155 33.078C124.715 32.143 124.622 32.023 123.51 32.193C122.667 32.3205 121.787 32.3605 121.792 33.2355L121.797 34.7855C121.802 35.633 121.957 35.638 122.532 36.108C123.552 36.9355 122.917 38.1105 121.942 38.728C121.202 39.2005 121.015 39.2005 120.922 40.2205C120.8 41.568 120.477 42.6005 120.21 43.473C119.56 45.6005 120.05 46.723 121.357 48.4005C122.125 49.383 123.187 50.6455 123.472 51.9355C123.592 52.468 123.56 53.203 124.35 52.4755Z" fill="white"/>
<path fill-rule="evenodd" clip-rule="evenodd" d="M122.102 53.2774C122.462 51.7599 121.71 50.0124 120.647 48.9374C120.392 48.6774 120.037 48.6174 120.025 49.0749C119.96 51.5649 119.917 53.3324 118.742 55.3274C117.955 56.6699 116.03 58.1474 115.295 59.6074C115.19 59.8174 115.257 59.9374 115.485 59.8424C117.747 58.8799 118.067 59.4124 120.895 57.4274C121.625 56.9124 122.22 56.6024 122.695 56.3224C123.165 56.0449 125.09 54.3499 123.592 54.5249C121.565 54.7624 121.86 54.3049 122.102 53.2774Z" fill="white"/>
<path fill-rule="evenodd" clip-rule="evenodd" d="M117.1 55.8647C119.76 53.1772 118.99 49.3122 118.78 46.5997C118.635 44.6822 119.58 42.8647 119.777 41.2822C119.922 40.1047 119.172 39.9772 118.197 40.1147C116.475 40.3572 114.78 40.7347 113.14 41.3022C112.25 41.6097 112.22 42.0872 112.48 42.9597C113.005 44.7197 113.075 46.5122 112.307 47.9947C111.482 49.5897 110.117 50.3622 109.84 52.2772C109.765 52.7897 110.002 52.9347 110.21 52.6822C111.457 51.1597 113.022 49.9897 114.215 48.4372C115.602 46.6272 115.277 45.8272 115.417 45.1947C115.542 44.6297 116.162 44.4797 116.415 44.9447C116.965 45.9472 116.372 48.0947 115.062 49.4697C110.937 53.8047 109.41 53.5897 110.517 58.8172C110.82 60.2497 111.49 61.8172 112.352 62.7272C112.945 63.3547 113.207 63.5447 113.425 62.5772C113.7 61.3697 113.26 59.7447 117.1 55.8647Z" fill="white"/>
<path fill-rule="evenodd" clip-rule="evenodd" d="M110.398 48.9421C111.388 47.4246 111.913 46.7096 111.483 44.1646C111.405 43.6971 111.295 43.2546 111.143 42.9121C110.785 42.0996 110.513 42.2021 109.82 42.3796L108.965 42.6796C108.563 42.8221 108.363 43.0596 108.42 43.4971C108.888 47.0621 110.023 49.3371 105.985 52.7571C104.978 53.6096 98.9602 55.7571 100.025 59.9921C100.408 61.5171 101.798 63.5146 103.243 64.3446C103.758 64.6396 104.16 64.4871 104.173 63.8771C104.228 61.1471 103.915 60.3321 103.598 59.6846C103.015 58.4896 104.07 58.3346 104.5 59.1346C104.713 59.5296 104.823 60.0146 104.923 60.4921C105.548 63.4971 105.015 64.9571 104.403 67.8571C103.75 70.9471 104.99 74.7671 107.205 75.7296C107.698 75.9446 107.84 75.6446 107.713 75.1996C107.203 73.3946 106.158 71.9796 108.665 67.6221C110.81 63.8946 109.59 61.7321 109.01 58.2396C108.675 56.2321 108.398 52.7471 109.133 51.0246C109.433 50.3196 109.88 49.7321 110.398 48.9421Z" fill="white"/>
<path fill-rule="evenodd" clip-rule="evenodd" d="M104.205 52.6299C108.19 50.9349 108.128 47.7624 107.655 44.6599C107.603 44.3149 107.458 43.8924 107.158 43.7424C106.828 43.5774 106.33 43.7074 105.968 43.8424C104.135 44.5174 101.183 45.7524 99.4826 46.5624C98.6451 46.9649 98.8951 47.6699 99.3151 48.3724C100.358 50.1124 100.518 52.2174 100.593 53.9999C100.618 54.6274 100.873 54.5874 101.285 54.1749C101.808 53.6549 102.398 52.8599 102.88 51.9874C103.5 50.8624 103.713 50.0124 103.863 49.1949C104.005 48.4374 104.72 48.7824 104.778 49.2574C104.903 50.2724 104.235 51.5024 103.808 52.3524C103.58 52.8074 103.795 52.8049 104.205 52.6299Z" fill="white"/>
<path fill-rule="evenodd" clip-rule="evenodd" d="M99.195 45.5676C101.553 44.7026 105.46 42.8726 106.68 42.4451C107.883 42.0226 109.16 41.6226 110.303 41.2001C110.663 41.0676 111.68 40.3251 110.64 40.1676C108.36 39.8226 104.925 39.1801 102.813 37.8726C102.048 37.4001 101.873 36.9451 102.663 36.3576C104.625 34.8951 106.978 34.0051 109.243 33.5451C113.12 32.7526 116.365 33.1276 119.865 34.6126C120.38 34.8326 120.785 34.9276 120.76 34.2526C120.75 33.9226 120.735 33.5776 120.707 33.1501C120.665 32.4576 120.132 32.3776 119.525 32.3201C116.052 31.9876 113.528 31.6376 111.392 30.6576C109.928 29.9876 110.183 28.9276 111.208 28.3051C113.288 27.0451 117.772 25.9251 120.222 25.6751C123.727 25.3151 129.002 25.4076 131.972 27.2326C132.81 27.7501 132.59 28.3601 132.068 28.7426C131.56 29.1176 131.022 29.4326 130.327 29.7451C129.57 30.0851 129.65 30.9376 130.042 31.5326C130.818 32.7076 132.062 33.6951 132.938 35.6626C135.765 32.4376 131.587 29.9226 135.278 26.2801C136.202 25.3676 137.585 23.9626 139.655 24.5401C141.322 25.0076 141.752 25.6651 142.372 26.7551C142.665 27.2676 143.062 27.4101 143.632 27.2801C144.368 27.1126 144.715 27.0551 145.645 27.1151C146.165 27.1501 146.365 26.8826 146.37 26.3976C146.388 24.8101 145.825 23.7451 144.495 22.8776C143.445 22.1926 142.82 22.2001 141.647 22.5476C138.978 23.3401 133.282 25.0401 128.833 23.8751C122.632 22.2551 122.092 21.1151 125.487 19.6251C128.747 18.1951 132.565 17.3676 136.118 17.5076C138.377 17.5951 139.292 17.2851 141 15.8601C141.912 15.1001 142.802 14.6151 144.435 13.7601C145.095 13.4151 145.182 12.9676 144.81 12.3276C144.325 11.5001 143.42 10.8151 142.5 10.4251C141.822 10.1376 141.322 10.2876 140.817 10.7901C140.045 11.5601 139.185 12.3851 138.272 13.1401C135.975 15.0376 132.272 16.7026 129.362 16.8701C128.445 16.9226 127.96 16.5676 128.287 15.6151C128.592 14.7276 129.34 13.9801 129.83 13.4276C129.995 13.2401 130.622 12.6801 131.232 12.1376C131.545 11.8601 132.272 11.0651 131.222 11.3151L128.47 11.9701C127.69 12.1551 127.217 12.5726 126.992 13.3276C125.483 18.4401 120.933 22.8676 114.323 24.4676C113.398 24.6901 113.1 24.5951 113.26 23.5001C113.705 20.4601 114.515 18.1876 115.535 16.2776C115.933 15.5326 115.195 15.4326 114.655 15.5751C114.1 15.7226 113.53 15.9226 113.033 16.1351C112.238 16.4751 111.903 17.1176 111.908 17.9676C111.94 23.4526 109.8 28.8076 105.075 31.7801C104.293 32.2726 103.548 32.3076 103.415 31.2601C102.888 27.0776 103.953 24.2276 104.235 22.0726C104.348 21.2251 103.975 20.9626 103.088 21.1926L100.143 22.1951C99.3825 22.4551 99.28 22.8401 99.4825 23.5351C100.628 27.4651 100.885 35.0551 99.09 38.3351C98.7075 39.0301 98.3725 39.1301 97.7175 38.6576C97.135 38.2426 96.8075 38.3601 96.455 38.9726C95.89 39.9501 95.245 41.3351 95.3125 42.5001C95.3725 43.5851 96.0525 44.6601 96.715 45.3601C97.385 46.0676 98.385 45.8626 99.195 45.5676Z" fill="white"/>
<path fill-rule="evenodd" clip-rule="evenodd" d="M98.0423 48.2648C96.8648 46.9573 95.7073 45.9923 95.0273 44.6473C94.7948 44.1923 94.2648 43.9923 93.6673 44.2723C92.8998 44.6273 92.0723 45.0148 91.5223 45.7723C90.6723 46.9398 90.9798 48.4473 92.5673 48.6373C93.4023 48.7348 94.3973 48.6398 95.1298 48.6123C95.6548 48.5898 96.0848 48.9398 95.6048 49.3448C94.9648 49.8898 93.7248 49.4573 93.0973 50.7598C92.5073 51.9748 92.8173 52.6148 93.1973 53.2298C93.5123 53.7423 93.5998 53.8948 94.1248 53.5698C94.8998 53.0923 95.5898 52.6148 96.0223 52.4248C96.8923 52.0398 97.2273 52.7123 96.7048 53.1498C96.1723 53.5973 95.1673 53.8623 93.4298 55.1648C92.7623 55.6648 91.5248 56.7623 91.1998 57.9248C90.9348 58.8698 91.2648 59.0898 92.1623 58.6873C93.0673 58.2823 94.4248 57.6273 95.6323 57.1723C98.2073 56.2048 99.8123 55.3123 99.4423 52.2673C99.2548 50.7273 98.8473 49.1573 98.0423 48.2648Z" fill="white"/>
<path fill-rule="evenodd" clip-rule="evenodd" d="M104.685 30.7529C111.73 26.1029 111.21 17.6679 110.26 13.5679C110.177 13.2079 110.017 13.3379 109.782 13.5329C105.937 16.7554 104.102 26.7929 104.225 30.5754C104.235 30.8604 104.445 30.9129 104.685 30.7529Z" fill="white"/>
<mask id="mask1_1_301" style="mask-type:luminance" maskUnits="userSpaceOnUse" x="113" y="8" width="14" height="16">
<path d="M113.92 8.25977H126.72V23.9998H113.92V8.25977Z" fill="white"/>
</mask>
<g mask="url(#mask1_1_301)">
<path fill-rule="evenodd" clip-rule="evenodd" d="M126.27 8.59476C119.79 10.2948 114.922 16.7573 114.332 23.4023C121.377 21.4648 126.415 16.5398 126.27 8.59476Z" fill="white"/>
</g>
<path fill-rule="evenodd" clip-rule="evenodd" d="M121.41 26.4948C119.963 26.5673 114.753 27.4523 112.813 28.6948C112.15 29.1198 112.07 29.6073 112.853 29.9398C114.948 30.8273 119.988 31.0623 121.353 31.0373C124.93 30.9673 128.663 30.0798 130.44 28.1598C129.12 26.7848 124.02 26.3623 121.41 26.4948Z" fill="white"/>
<path fill-rule="evenodd" clip-rule="evenodd" d="M120.85 36.2426C116.198 33.3251 107.458 33.3526 103.683 37.0926C107.515 39.7151 116.353 40.4651 120.805 37.7701C121.845 37.1401 121.83 36.8576 120.85 36.2426Z" fill="white"/>
<path fill-rule="evenodd" clip-rule="evenodd" d="M98.4123 37.5425C99.9448 33.685 100.312 25.0775 96.8523 21.2275C95.0348 24.2425 95.9323 35.645 98.4123 37.5425Z" fill="white"/>
<path fill-rule="evenodd" clip-rule="evenodd" d="M125.897 32.4447C127.235 36.1097 130.077 37.1697 128.667 42.7497C130.312 42.3222 135.032 38.5647 130.405 33.6222C129.74 32.9122 129.325 32.3022 128.847 31.3572C128.612 30.8897 127.987 30.7622 127.512 30.9122L126.39 31.2672C125.767 31.4622 125.677 31.8397 125.897 32.4447Z" fill="white"/>
<path fill-rule="evenodd" clip-rule="evenodd" d="M139.268 33.3624C139.258 34.1949 139.355 35.1649 139.13 36.0099C138.998 36.5099 139.003 36.9999 139.555 37.0974C140.963 37.3424 142.03 37.5574 143.265 38.0399C143.933 38.2999 144.515 38.5924 145.178 38.8724C145.575 39.0399 145.918 39.0574 145.785 38.4974C145.65 37.9224 145.425 37.2599 145.143 36.6824C144.838 36.0599 144.233 35.5924 143.605 35.2074C141.973 34.2049 141.79 34.0274 140.398 32.6874C139.85 32.1599 139.28 32.3649 139.268 33.3624Z" fill="white"/>
<path fill-rule="evenodd" clip-rule="evenodd" d="M143.358 29.2678L144.28 32.7928C144.378 33.1703 144.888 33.4628 145.355 32.8203C145.78 32.2353 146.353 31.7953 147.278 31.6753C148.043 31.5803 148.103 31.1878 147.895 30.5578C147.01 27.8928 145.173 28.1228 143.853 28.4203C143.45 28.5103 143.255 28.8803 143.358 29.2678Z" fill="white"/>
<path fill-rule="evenodd" clip-rule="evenodd" d="M142.83 32.1753C142.435 30.3828 141.852 27.6278 141.41 26.9278C140.128 24.9053 138.007 25.0228 136.408 26.5453C134.762 28.1103 134.247 28.9928 134.875 31.9978C135.427 34.6303 133.987 35.3653 133.595 37.3878C133.535 37.6953 133.765 38.0978 134.08 38.0478C139.05 37.2703 137.762 34.9903 138.273 32.5803C138.65 30.7903 139.875 30.5353 141.215 31.6503C141.627 31.9978 142.02 32.4103 142.438 32.7753C143.12 33.3703 142.898 32.4803 142.83 32.1753Z" fill="white"/>
<path fill-rule="evenodd" clip-rule="evenodd" d="M124.768 21.2053C127.628 23.8853 138.623 23.2928 141.08 20.9878C137.055 16.7928 128.13 18.9003 124.768 21.2053Z" fill="white"/>
<path fill-rule="evenodd" clip-rule="evenodd" d="M141.605 19.6375C142.855 20.3475 143.82 20.885 144.755 21.5525C145.65 22.1925 146.1 22 146.107 20.93C146.122 18.9625 146.207 17.3825 146.735 15.07C146.955 14.1025 146.052 14.105 145.385 14.385C143.795 15.0475 142.16 16.24 141.017 17.295C140.1 18.1425 140.687 19.1175 141.605 19.6375Z" fill="white"/>
<mask id="mask2_1_301" style="mask-type:luminance" maskUnits="userSpaceOnUse" x="128" y="8" width="14" height="9">
<path d="M128.64 8.25977H141.44V16.3198H128.64V8.25977Z" fill="white"/>
</mask>
<g mask="url(#mask2_1_301)">
<path fill-rule="evenodd" clip-rule="evenodd" d="M129.268 15.8568C130.94 16.0418 135.31 14.0818 136.43 13.2993C137.898 12.2793 140.815 10.0018 141.405 8.25684C138.93 8.37434 137.475 8.97934 135.438 10.2293C133.72 11.2818 129.765 14.3168 129.268 15.8568Z" fill="white"/>
</g>
<path fill-rule="evenodd" clip-rule="evenodd" d="M148.302 34.2698C148.117 33.1223 146.647 32.8473 146.355 34.1073C146.072 35.3348 146.667 37.1723 147.035 38.5323C147.087 38.7298 147.245 38.8298 147.352 38.6298C147.945 37.5123 148.532 35.6623 148.302 34.2698Z" fill="white"/>
<mask id="mask3_1_301" style="mask-type:luminance" maskUnits="userSpaceOnUse" x="125" y="38" width="25" height="42">
<path d="M125.44 38.0801H149.212V79.0401H125.44V38.0801Z" fill="white"/>
</mask>
<g mask="url(#mask3_1_301)">
<path fill-rule="evenodd" clip-rule="evenodd" d="M140.022 45.9451C137.795 45.0951 135.377 45.6751 134.022 46.1676C133.582 46.3276 132.965 46.0826 133.372 45.5576C134.42 44.2101 138.222 44.2926 139.955 44.8876C143.257 46.0226 145.175 48.5626 146.405 46.5776C147.082 45.4801 146.69 43.5326 146.49 42.2326C146.005 39.0601 139.68 37.4001 136.635 38.5251C136.052 38.7401 135.275 38.8251 134.575 38.9626C133.557 39.1626 132.845 39.7951 132.36 40.6926C132.06 41.2501 131.832 41.7201 131.04 42.4601C129.3 44.0901 126.952 44.0476 126.677 47.7101C126.187 54.2601 128.887 56.5201 130.95 58.0701C131.452 58.4476 133.015 59.5201 133.162 59.9651C133.352 60.5276 132.87 61.0576 131.955 60.5776C131.725 60.4551 131.485 60.2901 131.237 60.1076C130.82 59.7976 130.467 59.9251 130.282 60.3951C129.032 63.5826 132.77 66.0626 129.067 69.8176C128.197 70.7001 126.515 72.0101 125.965 73.4401C125.277 75.2426 125.325 77.3326 126.32 78.8176C128.407 75.0026 129.252 75.6851 130.547 74.3526C131.532 73.3376 132.215 70.0076 133.395 68.3001C134.707 66.4001 134.14 65.8676 134.527 63.8601C134.81 62.3951 135.372 60.8851 136.267 59.8026C137.025 58.8826 138.075 58.3076 139.2 57.9401C140.365 57.5601 140.29 56.8851 140.487 55.9126C140.712 54.8051 141.132 53.9251 141.667 53.4201C142.967 52.1901 144.597 53.7151 143.397 54.8401C142.185 55.9751 141.115 57.7726 143.227 58.6301C144.867 59.2976 147.27 59.4201 148.532 58.6951C149.487 58.1426 149.245 56.9051 148.947 56.0726C148.62 55.1651 148.19 54.0251 147.942 52.9776C147.532 51.2426 147.245 50.6251 146.747 49.6601C146.285 48.7626 145.59 48.6301 144.71 48.4126C143.262 48.0576 142.307 46.8151 140.022 45.9451ZM143.412 48.9401C142.31 49.7701 141.247 48.2951 139.717 47.6651C138.32 47.0901 136.1 47.2951 134.95 48.2876C137.077 52.2776 139.652 50.3826 141.382 49.9026C141.767 49.7976 142.147 49.9851 141.832 50.4426C140.687 52.1001 135.59 52.7076 134.107 48.6376C133.63 48.8151 133.325 48.9226 132.997 48.8251C132.607 48.7101 132.5 48.3476 132.78 48.1151C133.987 47.1051 138.255 45.4251 141.165 47.2176C141.787 47.6026 143.167 48.4401 143.412 48.9401Z" fill="white"/>
</g>
<path d="M18.7412 123.565H22.3362C22.1487 122.89 21.9987 121.637 21.9987 120.345V114.11H22.1487L27.4662 123.565H28.5512L33.8712 114.11H34.0762V120.345C34.0762 121.637 33.9262 122.89 33.7387 123.565H37.3337C37.1287 122.835 36.9962 121.692 36.9962 120.42V113.602C36.9962 112.33 37.1087 111.187 37.3337 110.457H33.5137L29.8062 117.105C29.1887 118.227 28.7212 119.09 28.1787 120.307H27.9712C27.4112 119.07 26.9412 118.172 26.3437 117.105L22.6537 110.457H18.7412C18.9662 111.187 19.0787 112.33 19.0787 113.602V120.42C19.0787 121.692 18.9462 122.835 18.7412 123.565Z" fill="white"/>
<path d="M43.3408 123.565H56.5408L57.0833 120.587C56.5408 120.887 55.6983 121.075 54.2183 121.075H46.5983V118.21H52.6283C53.5258 118.21 54.1433 118.247 54.5933 118.322V115.662C54.1433 115.737 53.5258 115.775 52.6283 115.775H46.5983V112.947H54.0883C55.3808 112.947 56.2033 113.08 56.6358 113.285L56.1658 110.457H43.3408C43.5458 111.187 43.6958 112.33 43.6958 113.602V120.42C43.6958 121.692 43.5658 122.835 43.3408 123.565Z" fill="white"/>
<path d="M66.7224 123.565H70.3174C70.0949 122.815 69.9824 121.692 69.9824 120.42V113.005H73.2199C74.4374 113.005 75.1499 113.117 75.7674 113.322L75.1874 110.457H61.8349L61.2549 113.322C61.8924 113.097 62.5849 113.005 63.8024 113.005H67.0599V120.42C67.0599 121.692 66.9299 122.815 66.7224 123.565Z" fill="white"/>
<path d="M80.6333 123.565H84.2283C84.0208 122.835 83.8908 121.692 83.8908 120.42V113.602C83.8908 112.33 84.0208 111.187 84.2283 110.457H80.6333C80.8383 111.187 80.9708 112.33 80.9708 113.602V120.42C80.9708 121.692 80.8583 122.835 80.6333 123.565Z" fill="white"/>
<path d="M96.8666 123.828C101.134 123.828 103.849 122.31 103.849 119.803C103.849 114.445 92.7091 116.938 92.7091 114.09C92.7091 112.968 94.5816 112.668 96.6966 112.668C98.9066 112.668 101.154 113.21 102.539 114.015V111.245C101.059 110.625 98.7191 110.195 96.5841 110.195C92.7841 110.195 89.6941 111.525 89.6941 114.053C89.6941 119.465 100.817 117.085 100.817 119.82C100.817 120.98 99.1866 121.375 96.8091 121.375C94.1141 121.375 91.5291 120.775 89.5641 119.52L89.4316 122.498C91.4741 123.303 94.5991 123.828 96.8666 123.828Z" fill="white"/>
<path d="M125.267 123.828C127.644 123.828 129.667 123.398 131.184 122.685V119.67C129.909 120.663 127.887 121.28 125.792 121.28C122.272 121.28 119.574 119.765 119.574 117.03C119.574 114.353 122.197 112.743 125.567 112.743C127.569 112.743 129.367 113.343 130.417 114.148L130.659 111.338C129.349 110.663 127.364 110.195 125.209 110.195C120.437 110.195 116.634 112.648 116.634 117.03C116.634 121.43 120.509 123.828 125.267 123.828Z" fill="white"/>
<path d="M134.55 123.565H138.22C138.295 123.077 138.613 122.46 139.063 121.505L139.605 120.495H147.04L147.583 121.487C148.125 122.46 148.35 123.06 148.425 123.565H152.095C151.59 122.835 150.86 121.637 150.243 120.42L146.648 113.585C146.14 112.555 145.805 111.3 145.635 110.457H141.048C140.918 111.187 140.598 112.367 139.98 113.602L136.423 120.42C135.785 121.617 135.055 122.835 134.55 123.565ZM140.693 118.265L142.415 114.932C142.753 114.202 142.978 113.602 143.238 112.855H143.408C143.65 113.585 143.895 114.222 144.213 114.915L145.953 118.265H140.693Z" fill="white"/>
<path d="M162.972 123.828C167.239 123.828 169.954 122.31 169.954 119.803C169.954 114.445 158.814 116.938 158.814 114.09C158.814 112.968 160.687 112.668 162.802 112.668C165.012 112.668 167.259 113.21 168.644 114.015V111.245C167.164 110.625 164.824 110.195 162.689 110.195C158.889 110.195 155.799 111.525 155.799 114.053C155.799 119.465 166.922 117.085 166.922 119.82C166.922 120.98 165.292 121.375 162.914 121.375C160.219 121.375 157.634 120.775 155.669 119.52L155.537 122.498C157.579 123.303 160.704 123.828 162.972 123.828Z" fill="white"/>
<path d="M175.176 123.565H178.771C178.564 122.835 178.434 121.692 178.434 120.42V113.602C178.434 112.33 178.564 111.187 178.771 110.457H175.176C175.381 111.187 175.514 112.33 175.514 113.602V120.42C175.514 121.692 175.401 122.835 175.176 123.565Z" fill="white"/>
<path d="M184.8 123.565H188.395C188.225 122.91 188.057 121.525 188.057 120.212V114.072H188.282L197.382 123.565H200.06V113.602C200.06 112.33 200.19 111.187 200.397 110.457H196.802C196.97 111.057 197.14 112.255 197.14 113.547V119.652H196.895L188.187 110.457H184.8C185.025 111.187 185.155 112.33 185.155 113.602V120.42C185.155 121.692 185.005 122.835 184.8 123.565Z" fill="white"/>
<path d="M213.837 123.828C218.519 123.828 221.944 121.263 221.944 117.013C221.944 112.76 218.519 110.195 213.837 110.195C209.157 110.195 205.729 112.76 205.729 117.013C205.729 121.263 209.157 123.828 213.837 123.828ZM213.837 121.505C210.897 121.505 208.687 119.783 208.687 117.013C208.687 114.223 210.897 112.518 213.837 112.518C216.777 112.518 218.987 114.223 218.987 117.013C218.987 119.783 216.777 121.505 213.837 121.505Z" fill="white"/>
<path d="M18.5874 131.293H221.63" stroke="white" stroke-width="3.00161"/>
<path d="M53.8089 144.317H55.6439L57.2939 139.505H57.3689L59.0189 144.317H60.8639C60.9189 143.845 61.0764 143.187 61.2714 142.63L62.4489 139.385C62.6614 138.755 62.9039 138.19 63.1064 137.827H61.2914C61.2714 138.087 61.2164 138.392 61.0689 138.885L60.0014 141.787C59.8814 142.13 59.7889 142.425 59.6864 142.77H59.6114L57.9064 137.827H56.7564L55.0414 142.77H54.9664C54.8664 142.425 54.7739 142.13 54.6514 141.787L53.5964 138.885C53.4389 138.402 53.3914 138.087 53.3739 137.827H51.5464C51.7589 138.19 52.0014 138.755 52.2139 139.385L53.3914 142.64C53.5764 143.195 53.7539 143.845 53.8089 144.317Z" fill="white"/>
<path d="M65.4199 144.317H67.1999C67.0799 143.927 67.0349 143.427 67.0349 142.815V141.665H71.0849V142.815C71.0849 143.445 71.0124 143.955 70.9174 144.317H72.6974C72.5874 143.955 72.5324 143.39 72.5324 142.76V139.385C72.5324 138.755 72.5974 138.19 72.6974 137.827H70.9174C71.0199 138.19 71.0849 138.7 71.0849 139.33V140.46H67.0349V139.33C67.0349 138.707 67.0999 138.207 67.1999 137.827H65.4199C65.5224 138.19 65.5974 138.755 65.5974 139.385V142.76C65.5974 143.39 65.5324 143.955 65.4199 144.317Z" fill="white"/>
<path d="M75.6704 144.317H82.2079L82.4754 142.842C82.2079 142.992 81.7904 143.085 81.0579 143.085H77.2854V141.665H80.2704C80.7154 141.665 81.0204 141.685 81.2429 141.722V140.405C81.0204 140.442 80.7154 140.46 80.2704 140.46H77.2854V139.06H80.9929C81.6329 139.06 82.0404 139.125 82.2529 139.227L82.0229 137.827H75.6704C75.7729 138.19 75.8479 138.755 75.8479 139.385V142.76C75.8479 143.39 75.7829 143.955 75.6704 144.317Z" fill="white"/>
<path d="M91.801 144.457C92.2735 144.457 92.7185 144.262 92.931 143.975L92.866 142.37C92.6985 142.77 92.476 143.02 91.976 143.02C90.956 143.02 91.1785 141.377 89.231 141.377H89.1585V141.305H89.7235C91.216 141.305 92.226 140.572 92.226 139.525C92.226 138.43 91.151 137.827 89.5935 137.827H85.106C85.2085 138.19 85.2735 138.755 85.2735 139.385V142.76C85.2735 143.39 85.2085 143.947 85.106 144.317H86.886C86.776 143.947 86.7185 143.445 86.7185 142.825V141.86C86.9335 141.795 87.666 141.777 87.9335 141.777C90.5935 141.777 89.381 144.457 91.801 144.457ZM86.7185 140.747V139.08H89.446C90.2435 139.08 90.781 139.395 90.781 139.915C90.781 140.452 90.2335 140.747 89.381 140.747H86.7185Z" fill="white"/>
<path d="M95.2534 144.317H101.791L102.058 142.842C101.791 142.992 101.373 143.085 100.641 143.085H96.8684V141.665H99.8534C100.298 141.665 100.603 141.685 100.826 141.722V140.405C100.603 140.442 100.298 140.46 99.8534 140.46H96.8684V139.06H100.576C101.216 139.06 101.623 139.125 101.836 139.227L101.606 137.827H95.2534C95.3559 138.19 95.4309 138.755 95.4309 139.385V142.76C95.4309 143.39 95.3659 143.955 95.2534 144.317Z" fill="white"/>
<path d="M112.57 144.447C114.07 144.447 115.387 143.955 116.092 143.195V140.525H112.365L112.3 141.787C112.475 141.73 112.885 141.695 113.152 141.695H114.72V142.472C114.285 142.927 113.45 143.205 112.605 143.205C110.975 143.205 109.852 142.397 109.852 141.09C109.852 139.755 111.047 138.93 112.745 138.93C113.672 138.93 114.682 139.125 115.275 139.487L115.35 138.18C114.6 137.892 113.662 137.697 112.587 137.697C110.15 137.697 108.425 139.025 108.425 141.09C108.425 143.15 110.112 144.447 112.57 144.447Z" fill="white"/>
<path d="M122.45 144.447C124.767 144.447 126.462 143.177 126.462 141.072C126.462 138.967 124.767 137.697 122.45 137.697C120.132 137.697 118.435 138.967 118.435 141.072C118.435 143.177 120.132 144.447 122.45 144.447ZM122.45 143.297C120.992 143.297 119.9 142.445 119.9 141.072C119.9 139.692 120.992 138.847 122.45 138.847C123.905 138.847 124.997 139.692 124.997 141.072C124.997 142.445 123.905 143.297 122.45 143.297Z" fill="white"/>
<path d="M129.101 144.317H132.848C135.128 144.317 136.621 143.092 136.621 141.072C136.621 139.052 135.128 137.827 132.848 137.827H129.101C129.203 138.19 129.278 138.755 129.278 139.385V142.76C129.278 143.39 129.213 143.955 129.101 144.317ZM130.716 143.047V139.087H132.746C134.146 139.087 135.138 139.83 135.138 141.072C135.138 142.315 134.146 143.047 132.746 143.047H130.716Z" fill="white"/>
<path d="M142.531 144.447C144.646 144.447 145.991 143.697 145.991 142.455C145.991 139.802 140.473 141.035 140.473 139.627C140.473 139.07 141.401 138.922 142.448 138.922C143.543 138.922 144.656 139.19 145.341 139.59V138.217C144.608 137.91 143.451 137.697 142.393 137.697C140.511 137.697 138.981 138.355 138.981 139.607C138.981 142.287 144.488 141.11 144.488 142.462C144.488 143.037 143.681 143.232 142.503 143.232C141.168 143.232 139.891 142.935 138.916 142.315L138.851 143.79C139.861 144.187 141.411 144.447 142.531 144.447Z" fill="white"/>
<path d="M152.651 144.317H154.431C154.321 143.955 154.266 143.41 154.266 142.787L154.273 140.812H154.348C154.581 142.082 155.673 142.657 157.158 142.657C158.696 142.657 159.836 141.75 159.836 140.2C159.836 138.672 158.548 137.827 156.806 137.827H152.651C152.753 138.19 152.828 138.755 152.828 139.385V142.76C152.828 143.39 152.763 143.955 152.651 144.317ZM156.611 141.48C155.443 141.48 154.283 140.822 154.273 139.692V139.06C155.006 138.987 155.748 138.977 156.583 138.977C157.733 138.977 158.391 139.44 158.391 140.2C158.391 140.997 157.556 141.48 156.611 141.48Z" fill="white"/>
<path d="M167.196 144.457C167.771 144.457 168.353 144.3 168.586 144.252L168.668 142.825C168.281 142.982 167.548 143.092 166.751 143.092H163.923V139.532C163.923 138.902 163.996 138.19 164.088 137.827H162.308C162.411 138.19 162.486 138.755 162.486 139.385V142.76C162.486 143.39 162.421 144.085 162.308 144.457C162.736 144.335 163.451 144.187 164.303 144.187C165.443 144.187 166.128 144.457 167.196 144.457Z" fill="white"/>
<path d="M170.288 144.317H172.105C172.143 144.077 172.3 143.77 172.523 143.297L172.793 142.797H176.473L176.743 143.287C177.01 143.77 177.123 144.067 177.158 144.317H178.975C178.725 143.955 178.365 143.362 178.058 142.76L176.278 139.375C176.028 138.865 175.86 138.245 175.778 137.827H173.505C173.44 138.19 173.283 138.772 172.978 139.385L171.215 142.76C170.9 143.352 170.54 143.955 170.288 144.317ZM173.33 141.695L174.183 140.042C174.35 139.682 174.46 139.385 174.59 139.015H174.675C174.795 139.375 174.915 139.692 175.073 140.035L175.935 141.695H173.33Z" fill="white"/>
<path d="M183.57 144.307H185.313C185.23 143.992 185.165 143.537 185.165 142.955V141.88L187.455 139.08C187.863 138.55 188.243 138.105 188.53 137.827H186.593C186.455 138.087 186.288 138.412 185.935 138.875L184.48 140.682H184.395L182.94 138.875C182.608 138.412 182.43 138.087 182.29 137.827H180.345C180.64 138.105 181.02 138.55 181.43 139.08L183.72 141.87V142.945C183.72 143.53 183.655 143.992 183.57 144.307Z" fill="white"/>
</svg>
