<svg width="18" height="18" viewBox="0 0 18 18" fill="none" xmlns="http://www.w3.org/2000/svg">
<g clip-path="url(#clip0_1_7)">
<path d="M13.5 0H10.5V0.75C10.5 1.14782 10.342 1.52936 10.0607 1.81066C9.77936 2.09196 9.39782 2.25 9 2.25C8.60218 2.25 8.22064 2.09196 7.93934 1.81066C7.65804 1.52936 7.5 1.14782 7.5 0.75V0H4.5C3.90326 0 3.33097 0.237053 2.90901 0.65901C2.48705 1.08097 2.25 1.65326 2.25 2.25V18H7.5V17.25C7.5 16.8522 7.65804 16.4706 7.93934 16.1893C8.22064 15.908 8.60218 15.75 9 15.75C9.39782 15.75 9.77936 15.908 10.0607 16.1893C10.342 16.4706 10.5 16.8522 10.5 17.25V18H15.75V2.25C15.75 1.65326 15.5129 1.08097 15.091 0.65901C14.669 0.237053 14.0967 0 13.5 0ZM11.9055 16.5C11.7398 15.8554 11.3643 15.2841 10.8383 14.8763C10.3123 14.4684 9.66561 14.247 9 14.247C8.33439 14.247 7.68768 14.4684 7.16167 14.8763C6.63567 15.2841 6.26025 15.8554 6.0945 16.5H3.75V12.75H6V11.25H3.75V2.25C3.75 2.05109 3.82902 1.86032 3.96967 1.71967C4.11032 1.57902 4.30109 1.5 4.5 1.5H6.0945C6.26025 2.14464 6.63567 2.71586 7.16167 3.12373C7.68768 3.5316 8.33439 3.75296 9 3.75296C9.66561 3.75296 10.3123 3.5316 10.8383 3.12373C11.3643 2.71586 11.7398 2.14464 11.9055 1.5H13.5C13.6989 1.5 13.8897 1.57902 14.0303 1.71967C14.171 1.86032 14.25 2.05109 14.25 2.25V11.25H12V12.75H14.25V16.5H11.9055Z" fill="currentColor"/>
<path d="M10.5 11.25H7.5V12.75H10.5V11.25Z" fill="currentColor"/>
</g>
<defs>
<clipPath id="clip0_1_7">
<rect width="18" height="18" fill="currentColor"/>
</clipPath>
</defs>
</svg>
