<svg width="18" height="18" viewBox="0 0 18 18" fill="none" xmlns="http://www.w3.org/2000/svg">
<g clip-path="url(#clip0_1_19)">
<path d="M9 0C7.21997 0 5.47991 0.527841 3.99987 1.51677C2.51983 2.50571 1.36628 3.91131 0.685088 5.55585C0.00389957 7.20038 -0.17433 9.00998 0.172937 10.7558C0.520204 12.5016 1.37737 14.1053 2.63604 15.364C3.89472 16.6226 5.49836 17.4798 7.24419 17.8271C8.99002 18.1743 10.7996 17.9961 12.4442 17.3149C14.0887 16.6337 15.4943 15.4802 16.4832 14.0001C17.4722 12.5201 18 10.78 18 9C17.9974 6.61384 17.0484 4.32616 15.3611 2.63889C13.6738 0.951621 11.3862 0.00258081 9 0ZM16.5 9C16.4991 9.47836 16.4523 9.95554 16.3605 10.425L14.9115 9.99C15.0295 9.33527 15.0295 8.66473 14.9115 8.01L16.3605 7.575C16.4523 8.04447 16.4991 8.52164 16.5 9ZM15.93 6.138L14.4825 6.57225C13.876 5.212 12.788 4.12401 11.4278 3.5175L11.862 2.07C13.7021 2.83538 15.1646 4.29786 15.93 6.138ZM9 13.5C8.10999 13.5 7.23996 13.2361 6.49994 12.7416C5.75992 12.2471 5.18314 11.5443 4.84255 10.7221C4.50195 9.89981 4.41284 8.99501 4.58647 8.12209C4.7601 7.24918 5.18869 6.44736 5.81802 5.81802C6.44736 5.18868 7.24918 4.7601 8.1221 4.58647C8.99501 4.41283 9.89981 4.50195 10.7221 4.84254C11.5443 5.18314 12.2472 5.75991 12.7416 6.49993C13.2361 7.23996 13.5 8.10998 13.5 9C13.4988 10.1931 13.0243 11.337 12.1807 12.1807C11.337 13.0243 10.1931 13.4988 9 13.5ZM10.425 1.6395L9.99 3.0885C9.33528 2.9705 8.66473 2.9705 8.01 3.0885L7.575 1.6395C8.51591 1.45355 9.4841 1.45355 10.425 1.6395ZM6.138 2.07L6.57225 3.5175C5.21201 4.12401 4.12401 5.212 3.5175 6.57225L2.07 6.138C2.83539 4.29786 4.29787 2.83538 6.138 2.07ZM1.5 9C1.50095 8.52164 1.54767 8.04447 1.6395 7.575L3.0885 8.01C2.9705 8.66473 2.9705 9.33527 3.0885 9.99L1.6395 10.425C1.54767 9.95554 1.50095 9.47836 1.5 9ZM2.07 11.862L3.5175 11.4278C4.12401 12.788 5.21201 13.876 6.57225 14.4825L6.138 15.93C4.29787 15.1646 2.83539 13.7021 2.07 11.862ZM7.575 16.362L8.01 14.913C8.66473 15.031 9.33528 15.031 9.99 14.913L10.425 16.362C9.4841 16.5479 8.51591 16.5479 7.575 16.362ZM11.862 15.9308L11.4278 14.484C12.788 13.8775 13.876 12.7895 14.4825 11.4293L15.93 11.8635C15.1645 13.703 13.7019 15.1647 11.862 15.9293V15.9308ZM10.9733 8.169C11.1529 8.4088 11.25 8.70037 11.25 9C11.25 9.29963 11.1529 9.5912 10.9733 9.831L9.5535 11.7233C9.4891 11.8092 9.40555 11.8791 9.30948 11.9271C9.2134 11.9752 9.10744 12.0003 9 12.0003C8.89257 12.0003 8.78661 11.9752 8.69053 11.9271C8.59446 11.8791 8.5109 11.8092 8.4465 11.7233L7.02675 9.831C6.8471 9.5912 6.75 9.29963 6.75 9C6.75 8.70037 6.8471 8.4088 7.02675 8.169L8.4465 6.27675C8.5109 6.19075 8.59446 6.12095 8.69053 6.07287C8.78661 6.02478 8.89257 5.99975 9 5.99975C9.10744 5.99975 9.2134 6.02478 9.30948 6.07287C9.40555 6.12095 9.4891 6.19075 9.5535 6.27675L10.9733 8.169Z" fill="currentColor"/>
</g>
<defs>
<clipPath id="clip0_1_19">
<rect width="18" height="18" fill="currentColor"/>
</clipPath>
</defs>
</svg>
