<svg id="Graphic_Elements" data-name="Graphic Elements" xmlns="http://www.w3.org/2000/svg" viewBox="0 0 1200 1200"><path  fill="currentColor" id="Graphic_Elements-2" data-name="Graphic Elements" d="M299.54,248.84c29.08-22.19,74.73-48,101.43-57.26s64.46-38.43,83.88-64.7c32-43.33,32.64-47.76,6.56-47.62-73.13.41-311.54,150-311.54,195.42,0,28.43,67.68,13.81,119.67-25.85Zm720.94,24.83c-9.32-17.42-40.48-49.07-69.24-70.34-96.42-71.28-101.55-62.93-11.91,19.38,48.88,44.87,90.95,81.82,93.49,82.1s-3-13.73-12.34-31.14ZM871,253.63c24.79-41,24.48-45.69-5.16-78.47C814.38,118.27,720.67,79.1,636,79.1c-65.61,0-85.82,7.73-123.74,47.3l-45.32,47.31,60.84,53.69c63.65,56.16,130,75.49,247.06,72,57.38-1.73,74.5-9.87,96.16-45.72Zm239,189.05L1085.53,378l8.46,64.64c4.64,35.55,13.32,90.08,19.27,121.19l10.81,56.55,5.24-56.55C1132.19,532.76,1123.51,478.23,1110,442.68ZM189.52,608.3c33.9-65.85,44-109.23,45.29-193.88,1.59-107.49,1-109-41-109.07-35,0-49.16,13.71-79,76.73C93.44,427.16,75.18,503.2,70.54,566.33c-8.14,110.83-7,113.12,64,124.93C140.78,692.3,165.5,655,189.52,608.3ZM887.44,656c28.54-47.09,51.89-98.82,51.89-115,0-50-85.79-189.93-125.75-205.12-20.87-7.93-77.11-14.43-125-14.43h-87L543.69,420.2c-64.8,110.58-64.13,125.2,11.25,244.66l48.43,76.75H835.55ZM519.62,835.4l51.66-84-57.54-105.9L456.21,539.63H238.75l-40,80.15-40,80.16L211,800.62C266.15,907,273.69,911.42,408.75,916.94c54.86,2.24,63-3.74,110.87-81.54Zm513.87,41.85c61.72-74.88,93.08-183.38,73.18-253.21-12.84-45-22.89-52.77-74-57.06-52.82-4.42-62.15.8-86.61,48.48-15.08,29.39-40.93,70.78-57.45,92C857.3,747.57,851.49,799.29,868.64,885c8.86,44.33,16.62,50.5,63.46,50.5C973.73,935.52,996,922.71,1033.49,877.25ZM805.67,1088.53c65.63-27.42,166-99.2,166-118.72,0-6.89-23.63-9.49-52.51-5.76-68.62,8.85-254.37,103-254.45,129-.1,27.62,69.36,25.38,141-4.54ZM640.54,1113c5.58-9-6.72-30.43-27.32-47.58s-62.91-52.32-94-78.14c-44-36.52-79-49.24-157.54-57.21-56.88-5.77-101-3.87-101,4.35,0,8-4.17,25.47-9.27,38.76-24.81,64.65,352,200,389.16,139.82Zm-245.73-1.42C287,1070.14,167.16,962.08,107.33,852.28,42.11,732.58,31,534.9,81.91,399.9,127.36,279.35,219,178.21,344.35,110.24c96-52,111.4-55.37,255.65-55.3,137.23.06,162.93,5,242.38,46.23,120.2,62.4,232.38,183.79,275.46,298.07,51.16,135.69,40.19,333.06-25.17,453-61,112-180.46,218.36-292.07,260.12-117.18,43.84-290.57,43.5-405.79-.79Z"/></svg>