<svg width="13" height="9" viewBox="0 0 13 9" fill="none" xmlns="http://www.w3.org/2000/svg">
<path d="M4.875 9L11.375 9C11.806 9 12.2193 8.84196 12.524 8.56066C12.8288 8.27936 13 7.89782 13 7.5V5.5H12.4583C12.171 5.5 11.8955 5.39464 11.6923 5.20711C11.4891 5.01957 11.375 4.76522 11.375 4.5C11.375 4.23478 11.4891 3.98043 11.6923 3.79289C11.8955 3.60536 12.171 3.5 12.4583 3.5H13L13 1.5C13 1.10218 12.8288 0.720644 12.524 0.43934C12.2193 0.158035 11.806 0 11.375 0L4.875 0V2L3.79167 2V0L0 0L0 3.5H0.541666C0.828984 3.5 1.10453 3.60536 1.3077 3.79289C1.51086 3.98043 1.625 4.23478 1.625 4.5C1.625 4.76522 1.51086 5.01957 1.3077 5.20711C1.10453 5.39464 0.828984 5.5 0.541666 5.5H0V9L3.79167 9V7H4.875V9ZM3.79167 5.5V3.5L4.875 3.5V5.5H3.79167Z" fill="currentColor"/>
</svg>
